<svg xmlns="http://www.w3.org/2000/svg" xmlns:xlink="http://www.w3.org/1999/xlink" version="1.1" id="Layer_1" x="0px" y="0px" style="enable-background:new 0 0 841.89 1190.55;" xml:space="preserve" viewBox="18.86 154.19 800.55 105.88">
<style type="text/css">
	.st0{fill:#FDFDFD;}
	.st1{fill:#FDD205;}
	.st2{fill:#FDFCFD;}
</style>
<g>
	<g>
		<path class="st0" d="M431.72,204.6c-0.22,1.66,0.1,3.32,0.11,4.98c0.05,14.53,0.08,29.05,0.14,43.58    c0.01,1.85-0.71,2.78-2.65,2.76c-3.89-0.04-7.78-0.03-11.67,0c-1.7,0.01-2.46-0.71-2.46-2.45c-0.02-25.79-0.06-51.58-0.12-77.38    c0-1.58,0.71-2.25,2.2-2.25c6.62,0,13.24,0.01,19.86-0.01c1.21,0,1.85,0.57,2.21,1.7c3.81,11.98,7.65,23.96,11.46,35.94    c1.62,5.1,3.19,10.21,4.85,15.53c3.45-10.65,6.82-21.04,10.19-31.44c2.16-6.65,4.32-13.31,6.46-19.97    c0.39-1.22,1.17-1.75,2.42-1.74c6.48,0,12.97,0.01,19.45-0.02c1.96-0.01,2.11,1.23,2.1,2.74c-0.03,15.29-0.04,30.57-0.04,45.86    c0,10.24,0.02,20.47,0.03,30.71c0,2.45-0.26,2.74-2.67,2.76c-4.09,0.02-8.19-0.02-12.28,0.04c-1.73,0.02-2.44-0.66-2.43-2.42    c0.04-15.56,0.05-31.12,0.02-46.67c0-1.42,0.7-2.76,0.32-4.66c-1.13,3.6-2.19,6.78-3.13,10c-3.75,12.81-8.4,25.33-12.38,38.07    c-0.04,0.13-0.1,0.25-0.15,0.38c-1.98,5.26-1.98,5.26-7.65,5.28c-1.77,0-3.55-0.07-5.32,0.04c-1.58,0.1-2.3-0.61-2.82-2.03    c-2.51-6.83-4.37-13.87-6.62-20.78c-3.03-9.29-6.13-18.55-8.84-27.93C432.2,204.95,432.23,204.62,431.72,204.6z"/>
		<path class="st1" d="M387.87,174.15c-20.33-0.06-40.65,0.32-60.98-0.13c-3.48-0.08-6.95,0.09-10.43,0.1    c-2.92,0.01-4.54,1.49-4.55,4.27c-0.01,2.65,1.73,4.38,4.54,4.38c10.23-0.01,20.44,0.19,30.66,0.46    c9.76,0.26,19.51,0.07,29.28,0.02c5.11-0.01,5.02-0.09,3.5,4.75c-0.54,1.73-1.37,2.23-3.16,2.22c-17.4-0.07-34.81-0.03-52.21-0.01    c-2.96,0-4.81,1.64-4.8,4.12c0.01,2.94,1.49,4.23,4.76,4.22c15.63-0.06,31.25-0.1,46.88-0.12c4.69-0.01,4.65,0,3.08,4.4    c-0.52,1.47-1.21,2.04-2.9,2.03c-14.26-0.09-28.53-0.06-42.8-0.06c-2.51,0.01-4.11,1.47-4.16,3.74c-0.04,2.27,1.57,3.83,4.08,3.86    c1.7,0.02,3.41-0.13,5.11-0.12c11.11,0.02,22.23,0.09,33.35,0.11c3.76,0.01,3.71-0.04,2.6,3.56c-0.44,1.45-1.13,2.01-2.73,1.96    c-4.78-0.12-9.56-0.02-14.33-0.02c-10.36-0.01-20.74-0.01-31.11-0.03c-0.85,0-1.71,0.22-2.13-1c-2.34-6.75-4.79-13.45-7.13-20.21    c-3.66-10.62-7.26-21.25-10.9-31.88c-0.54-1.61-1.53-2.88-3.12-3.6c-5.4-2.46-10.88-4.67-16.5-6.56    c-3.21-1.08-5.07-0.09-6.08,3.11c-0.85,2.66,0.28,4.46,3.27,5.5c4.31,1.5,8.57,3.13,12.89,4.62c1.37,0.46,2.03,1.29,2.46,2.65    c1.92,6.04,3.84,12.08,5.95,18.05c3.55,10.01,7.25,19.96,10.88,29.94c0.35,0.98,0.44,1.8-0.2,2.85c-2.32,3.76-4.5,7.61-6.65,11.49    c-2.25,4.05-1.09,7.34,3.05,9.02c-3.47,7.25-0.95,12.45,2.91,15.54c4.26,3.41,10.15,3.6,14.82,0.44c2.1-1.41,3.49-3.38,4.43-5.73    c1.41-3.52,0.66-6.86-0.82-10.2h21.13c-3.22,6.4-1.05,12.12,2.32,15.07c4.26,3.74,10.05,4.11,15.14,0.93    c2.69-1.69,4.02-4.35,4.89-7.29c0.92-3.09-0.1-5.91-1.24-8.75c3.16-0.34,4.61-1.92,4.41-4.6c-0.19-2.65-1.62-3.81-4.75-3.77    c-4.5,0.06-9,0.3-13.5,0.18c-12.41-0.35-24.83-0.02-37.24-0.09c-2.02-0.01-4.05-0.01-6.42-0.01c1.08-1.96,2.09-3.39,2.66-4.97    c0.66-1.84,1.83-2.1,3.58-2.09c17.27,0.07,34.54,0.06,51.8,0.06c2.68,0,4.29-1.11,5.12-3.49c5.05-14.37,10.11-28.73,15.16-43.08    C392.82,176.92,391.04,174.15,387.87,174.15z M360.44,243.8c1.98,0.02,4.02,2.24,3.91,4.25c-0.1,1.86-2.11,3.66-4.04,3.61    c-2.1-0.06-4.11-1.94-4.08-3.85C356.25,245.91,358.5,243.78,360.44,243.8z M317.86,243.73c2.06-0.04,3.82,1.83,3.86,4.15    c0.04,1.81-1.81,3.66-3.65,3.65c-2.16-0.01-4.15-1.75-4.18-3.66C313.86,245.79,315.78,243.78,317.86,243.73z"/>
		<path class="st0" d="M634.92,252.84c-5.68-9.99-11.34-19.99-17.13-29.91c-0.83-1.42-0.24-1.61,0.82-2.1    c4.81-2.2,8.36-5.67,10.51-10.56c2.6-5.96,2.65-12.08,1.43-18.33c-1.23-6.29-4.66-10.87-10.29-13.94    c-5.22-2.85-10.85-4.03-16.67-4.15c-7.98-0.15-15.96-0.01-23.95,0c-2.58,0-2.86,0.26-2.86,2.78c-0.01,7.5,0.01,15.01-0.01,22.51    c-0.04,17.87-0.11,35.73-0.17,53.6c-0.01,2.76,0.4,3.16,3.2,3.16c3.96,0,7.92-0.06,11.87,0.02c1.84,0.04,2.59-0.68,2.57-2.52    c-0.06-4.16-0.02-8.32-0.02-11.61c0.47-5.5-0.34-10.13,0.11-14.75c0.08-0.77-0.41-2.06,1.05-1.95c1.62,0.12,3.71-1.21,4.76,0.97    c1.57,3.24,3.35,6.37,5.04,9.56c3.09,5.83,6.04,11.73,9,17.63c0.95,1.9,2.27,2.78,4.5,2.71c4.77-0.15,9.53-0.07,14.3-0.08    C635.57,255.88,636.15,254.99,634.92,252.84z M608.35,208.1c-1.37,0.54-2.81,0.97-4.27,1.17c-1.48,0.2-2.99,0.04-4.49,0.04    c0,0.01,0,0.02,0,0.02c-1.29,0-2.59-0.07-3.87,0.02c-1.15,0.08-1.68-0.29-1.5-1.47c0.75-5.15-0.01-10.32,0.12-15.48    c0.03-1.47,0.5-1.9,1.86-1.8c3.96,0.28,8.01-0.35,11.87,1.05c3.31,1.19,5.2,3.97,5.29,7.67    C613.46,203.42,611.57,206.83,608.35,208.1z"/>
		<path class="st0" d="M662.64,223.42c-3.07,2.79-3.83,6.06-3.61,10.1c0.36,6.59,0.24,13.22-0.08,19.84    c-0.09,1.84-0.86,2.56-2.64,2.55c-4.3-0.03-8.6-0.01-12.9,0.03c-1.64,0.01-2.29-0.72-2.28-2.36c0.07-15.55,0.12-31.11,0.13-46.66    c0.01-10.03-0.07-20.06-0.09-30.08c-0.01-2.58,0.4-2.99,2.92-2.99c4.03,0,8.05,0,12.08,0.02c2.41,0.01,2.95,0.54,2.95,3.04    c0.02,9.42,0.02,18.83,0.03,28.25c0,0.24,0,0.49,0,1.09c2.04-2.95,3.85-5.62,5.72-8.26c5.25-7.38,10.56-14.72,15.76-22.14    c0.97-1.39,2.11-2.01,3.73-2.01c5.39,0.01,10.78,0.01,16.18,0c0.8,0,1.55,0.11,1.9,0.89c0.31,0.68-0.03,1.28-0.46,1.87    c-6.13,8.52-12.57,16.8-18.98,25.09c-2.04,2.64-4.08,5.27-6.19,7.86c-0.55,0.68-0.68,1.14-0.18,1.93    c5.92,9.38,11.82,18.77,17.69,28.18c2.81,4.5,5.59,9.03,8.33,13.57c0.88,1.45,0.32,2.62-1.41,2.65c-5.8,0.09-11.6,0.06-17.4,0.01    c-1-0.01-1.7-0.71-2.23-1.58c-4.31-7.1-8.64-14.2-12.98-21.29C666.68,229.82,664.67,226.66,662.64,223.42z"/>
		<path class="st0" d="M275.06,253.1c-0.96-2.83-2-5.62-2.94-8.45c-3.38-10.15-6.67-20.34-10.11-30.47    c-4.29-12.66-8.7-25.27-12.68-38.02c-0.54-1.73-1.5-2.38-3.27-2.35c-4.3,0.08-8.61,0.02-12.9,0.02c-3.52,0-3.59,0.11-4.77,3.45    c-5.88,16.74-11.72,33.5-17.74,50.2c-3.07,8.49-6.22,16.95-9.06,25.52c-0.68,2.1-0.17,2.88,1.94,2.89c4.91,0.03,9.83-0.03,14.74,0    c1.47,0.01,2.25-0.68,2.71-1.99c1.38-3.91,2.87-7.78,3.86-11.82c0.26-1.09,0.85-1.52,1.95-1.69c1.8-0.26,3.53,0.18,5.29,0.25    c2.95,0.13,5.84-0.61,8.77-0.25c2.78,0.34,5.58,0.35,8.35,0.02c1.67-0.2,2.54,0.11,2.86,1.9c0.68,3.88,2.14,7.57,3.29,11.33    c0.47,1.54,1.38,2.36,3.13,2.27c2.38-0.11,4.78-0.02,7.16-0.02c2.46,0,4.91,0.02,7.37,0C275.15,255.89,275.73,255.09,275.06,253.1    z M244.7,223.11c-4.61,0.12-9.23,0.38-13.93-0.21c1.94-9.05,5.95-17.38,7.67-26.4c0.96,4.24,1.96,8.53,3.44,12.67    c1.47,4.08,2.65,8.23,3.72,12.43C245.84,222.51,246.05,223.07,244.7,223.11z"/>
		<path class="st0" d="M92.37,252.94c-3.69-10.96-7.38-21.91-11.11-32.84c-5.03-14.73-10.09-29.45-15.14-44.17    c-0.46-1.36-1.31-2.13-2.87-2.11c-4.71,0.06-9.41,0.04-14.13,0.03c-1.41-0.01-2.22,0.55-2.71,1.93    c-4.22,11.74-8.51,23.45-12.73,35.19c-3.08,8.56-6.1,17.14-9.1,25.72c-1.87,5.33-3.67,10.68-5.44,16.05    c-0.75,2.25-0.01,3.16,2.39,3.17c4.76,0.01,9.5-0.02,14.26,0.02c1.46,0.01,2.28-0.58,2.69-1.96c0.92-3.12,1.88-6.23,2.84-9.36    c1.3-4.23,1.31-4.23,5.68-4.03c0.14,0.01,0.28,0.01,0.41,0c6.27-0.38,12.53,0.1,18.78-0.06c1.89-0.04,2.55,0.61,3.02,2.35    c1.03,3.79,2.34,7.5,3.51,11.26c0.4,1.28,1.13,1.86,2.54,1.81c2.53-0.1,5.05-0.02,7.57-0.02c0,0,0,0.01,0,0.02    c2.46,0,4.91,0.01,7.37,0C92.6,255.92,93.14,255.21,92.37,252.94z M62.42,223.12c-4.82,0.13-9.64,0.38-14.53-0.29    c2.41-8.43,5.23-16.73,7.35-25.24c1.3,0.58,0.71,1.84,1,2.74c2.38,7.2,4.6,14.45,6.9,21.67C63.39,222.79,63.32,223.1,62.42,223.12    z"/>
		<path class="st0" d="M572.63,253.09c-0.45-1.48-0.97-2.95-1.48-4.41c-4.51-13.13-9.39-26.14-13.66-39.37    c-3.62-11.21-7.57-22.32-11.33-33.5c-0.49-1.48-1.32-2.04-2.85-2.01c-4.57,0.07-9.14,0.1-13.71,0.04    c-1.72-0.03-2.56,0.66-3.1,2.27c-2.41,7.17-4.88,14.31-7.42,21.44c-6.56,18.43-12.89,36.94-18.76,55.6    c-0.64,2.04-0.12,2.74,2.09,2.75c4.44,0.03,8.87-0.04,13.31,0.04c1.93,0.04,3.01-0.65,3.55-2.55c1.04-3.66,2.34-7.26,3.32-10.94    c0.49-1.82,1.56-2.27,3.15-2.11c6.85,0.71,13.72-0.02,20.58,0.22c1.89,0.07,2.64,0.61,3.09,2.31c0.94,3.52,2.06,7,3,10.53    c0.47,1.75,1.34,2.66,3.3,2.53c2.31-0.14,4.62-0.03,6.94-0.03v0.03c2.66,0,5.32,0.04,7.98-0.01    C572.53,255.87,573.19,254.9,572.63,253.09z M542,223.15c-4.14,0.08-8.28,0.2-12.43-0.04c-1.06-0.06-1.18-0.23-0.88-1.29    c2.02-7.23,4.65-14.28,6.4-21.59c0.21-0.83,0.23-1.7,0.57-2.9c0.92,3.05,1.66,5.75,2.54,8.41c1.75,5.24,3.45,10.49,4.89,15.82    C543.38,222.64,543.35,223.13,542,223.15z"/>
		<path class="st0" d="M707.66,214.73c0-12.62,0-25.24,0-37.87c0-2.66,0.39-3.03,3.11-3.03c14.19-0.01,28.39-0.02,42.58-0.02    c2.51,0,2.82,0.32,2.82,2.83c0,3.82,0,7.64-0.01,11.46c-0.01,2.22-0.53,2.73-2.8,2.74c-8.53,0.01-17.06,0.05-25.59-0.02    c-1.42-0.01-1.85,0.33-1.81,1.78c0.11,3.68,0.09,7.37,0,11.05c-0.03,1.41,0.36,1.86,1.81,1.85c7.57-0.07,15.15-0.03,22.72-0.03    c2.64,0,2.84,0.19,2.84,2.75c0,3.82,0.01,7.64-0.01,11.46c-0.01,2.44-0.21,2.61-2.73,2.62c-7.57,0.02-15.13,0.09-22.7,0.04    c-1.48-0.01-1.99,0.29-1.94,1.88c0.13,4.16,0.16,8.33-0.02,12.48c-0.08,1.94,0.62,2.21,2.31,2.19c8.46-0.08,16.92-0.03,25.38-0.03    c2.48,0,2.79,0.29,2.81,2.85c0.03,3.89-0.02,7.78,0.06,11.67c0.04,1.85-0.73,2.54-2.56,2.54c-14.53-0.03-29.07,0-43.6,0.01    c-2.08,0-2.64-0.58-2.65-2.93c-0.02-12.76-0.01-25.52-0.01-38.27C707.68,214.73,707.67,214.73,707.66,214.73z"/>
		<path class="st0" d="M122.55,172.15c9.67,0.08,16.98,2.4,23.33,7.51c2.01,1.62,1.97,1.83,0.55,3.96    c-2.07,3.12-4.06,6.29-6.34,9.27c-1.66,2.16-1.86,2.16-4.04,0.52c-4.55-3.41-9.55-5.11-15.27-3.78c-2.81,0.65-4.77,2.24-5.4,5.17    c-0.6,2.78,0.46,4.86,2.68,6.53c2.7,2.02,5.72,3.41,8.81,4.64c3.62,1.44,7.12,3.15,10.39,5.19c7.53,4.7,11.26,12,10.5,21.7    c-0.4,5.14-1.51,9.93-4.66,14.09c-4.42,5.85-10.58,8.69-17.62,9.64c-10.72,1.45-20.74-0.43-29.57-7.08    c-0.71-0.53-1.43-1.05-2.07-1.67c-0.97-0.94-1.06-2.01-0.16-3.07c2.77-3.29,5.01-6.96,7.54-10.42c1.61-2.21,1.65-2.23,3.72-0.57    c4.6,3.69,9.53,6.72,15.74,6.25c4.17-0.32,7.26-1.3,8.37-5.45c0.97-3.64-0.09-6.45-3.3-8.36c-4.04-2.41-8.51-3.91-12.76-5.87    c-6.52-3.01-12.17-6.97-14.57-14.22c-3.43-10.35-1.02-23.49,10.27-30.15C113.38,173.21,118.58,171.88,122.55,172.15z"/>
		<path class="st2" d="M183.9,204.45c4.58-9.53,9.14-18.94,13.61-28.39c0.78-1.66,1.83-2.29,3.63-2.25    c4.57,0.08,9.14,0.01,13.72,0.01c3.76,0,4.25,0.8,2.36,4.18c-4.24,7.59-7.95,15.46-12.28,23c-4.15,7.23-8.07,14.59-12.14,21.87    c-0.47,0.85-0.44,1.68-0.44,2.56c0,9.21,0.02,18.42,0.01,27.63c0,2.51-0.37,2.83-2.84,2.84c-4.16,0.01-8.33-0.03-12.49,0.05    c-1.85,0.04-2.54-0.69-2.53-2.54c0.08-9.35,0.06-18.69,0.12-28.04c0.01-1.26-0.24-2.36-0.88-3.47    c-8.63-14.83-16.13-30.25-23.88-45.54c-0.82-1.62-0.34-2.45,1.51-2.47c5.39-0.05,10.78-0.04,16.17-0.07    c1.33-0.01,2.15,0.62,2.7,1.78C174.76,185.16,179.29,194.72,183.9,204.45z"/>
		<path class="st0" d="M780.8,222.85c0-10.03-0.05-20.06,0.05-30.09c0.02-1.68-0.51-1.97-2.03-1.94    c-5.32,0.09-10.65,0.05-15.97,0.04c-2.42,0-3.21-0.73-3.22-3.11c-0.02-3.82,0.04-7.64,0.04-11.46c0-1.71,0.82-2.46,2.52-2.46    c18.22,0.01,36.45,0.01,54.67-0.02c1.84,0,2.57,0.77,2.55,2.59c-0.06,3.96-0.05,7.92,0,11.87c0.02,1.82-0.74,2.58-2.58,2.56    c-5.25-0.08-10.51-0.01-15.76-0.15c-1.6-0.04-1.9,0.47-1.9,1.95c0.03,19.31,0.01,38.62-0.01,57.93c0,0.89,0,1.77,0,2.66    c0,1.82-0.81,2.72-2.74,2.7c-4.37-0.06-8.74-0.04-13.1,0.02c-1.85,0.03-2.52-0.76-2.52-2.58c0.05-10.17,0.02-20.33,0.02-30.5    C780.82,222.85,780.81,222.85,780.8,222.85z"/>
	</g>
</g>
</svg>